<svg width="50" height="51" viewBox="0 0 50 51" fill="none" xmlns="http://www.w3.org/2000/svg">
<rect x="6" width="44" height="44" rx="15" fill="#EC1414" fill-opacity="0.16"/>
<path d="M21.5498 27.1189C20.8185 26.4441 20.8185 25.9533 18.7747 25.9738C18.0145 26.0964 17.3052 26.4634 16.7373 27.028C16.1695 27.5926 15.769 28.3291 15.587 29.1432C15.4175 29.7553 15.4217 30.409 15.5991 31.0185C15.7764 31.6279 16.1187 32.1646 16.5808 32.5581C17.2274 32.9569 17.9658 33.144 18.7074 33.0969C19.4491 33.0497 20.1625 32.7703 20.7622 32.2922C21.4004 31.8963 21.8975 31.2773 22.1731 30.5352C22.4488 29.793 22.4868 28.9712 22.281 28.2026C22.1223 27.7815 21.8712 27.4094 21.5498 27.1189ZM19.6747 30.6155C19.3891 30.8478 19.0487 30.9866 18.6934 31.0156C18.338 31.0445 17.9825 30.9625 17.6684 30.7791C17.1996 30.4519 17.2746 29.7567 17.4621 29.1432C17.6496 28.5298 18.1559 27.5483 18.7934 27.4256C19.0906 27.3864 19.392 27.4253 19.6726 27.5391C19.9531 27.653 20.2046 27.8384 20.406 28.0799C20.5926 28.2565 20.7238 28.4925 20.781 28.7547C21.0435 29.5522 20.4247 30.2065 19.7497 30.6155H19.6747Z" fill="#EC1414"/>
<path d="M10.4495 37.8338C9.71817 37.159 9.71817 36.6682 7.6556 36.6887C6.89884 36.815 6.19358 37.1838 5.62937 37.7481C5.06516 38.3124 4.66745 39.0468 4.48673 39.8581C4.30041 40.4815 4.29593 41.1525 4.47391 41.7787C4.65189 42.405 5.00358 42.9556 5.48052 43.3547C6.12713 43.7536 6.86549 43.9407 7.60713 43.8936C8.34876 43.8464 9.0622 43.567 9.66192 43.0889C10.3001 42.693 10.7972 42.074 11.0728 41.3319C11.3484 40.5897 11.3865 39.7679 11.1807 38.9993C11.033 38.5486 10.7811 38.1472 10.4495 37.8338ZM8.57438 41.3304C8.28877 41.5627 7.94837 41.7015 7.59304 41.7305C7.23771 41.7594 6.88217 41.6774 6.56806 41.494C6.09929 41.1668 6.17429 40.4716 6.3618 39.8581C6.54931 39.2447 7.03683 38.2632 7.6931 38.1405C7.98726 38.1046 8.28504 38.1452 8.56205 38.2589C8.83907 38.3727 9.08746 38.5563 9.28691 38.7948C9.47858 38.9703 9.61606 39.2059 9.68067 39.4696C9.94318 40.2671 9.38066 40.9214 8.64938 41.3304H8.57438Z" fill="#EC1414"/>
<path d="M31.4502 26.853C30.6814 26.1374 30.6814 25.6875 28.6563 25.6875C27.8971 25.8153 27.1901 26.1871 26.6257 26.7553C26.0612 27.3235 25.6649 28.0623 25.4875 28.8774C25.3026 29.4977 25.2989 30.1653 25.4769 30.788C25.655 31.4107 26.0059 31.9577 26.4813 32.3536C27.1234 32.7679 27.8643 32.964 28.6092 32.9166C29.354 32.8692 30.069 32.5807 30.6627 32.0878C31.3009 31.6919 31.798 31.0728 32.0736 30.3307C32.3492 29.5886 32.3872 28.7667 32.1815 27.9981C32.034 27.5531 31.7818 27.1582 31.4502 26.853ZM29.5751 30.3497C29.2895 30.582 28.9491 30.7208 28.5938 30.7498C28.2385 30.7787 27.8829 30.6967 27.5688 30.5133C27.1 30.1861 27.175 29.4704 27.3625 28.857C27.5501 28.2435 28.0376 27.262 28.6938 27.1598C29.1235 27.0828 29.5643 27.1713 29.9407 27.4101C30.317 27.6489 30.6054 28.0231 30.7564 28.4684C30.9439 29.2864 30.3252 29.9203 29.6501 30.3497H29.5751Z" fill="#EC1414"/>
<path d="M20.3498 37.5679C19.6185 36.8932 19.6185 36.4024 17.5559 36.4024C16.7909 36.5139 16.0761 36.88 15.509 37.4509C14.9418 38.0218 14.5501 38.7696 14.3871 39.5923C14.1993 40.2124 14.1942 40.8809 14.3724 41.5043C14.5507 42.1277 14.9033 42.6746 15.3808 43.0685C16.0248 43.48 16.7667 43.6725 17.5116 43.6215C18.2565 43.5705 18.9705 43.2783 19.5623 42.7822C20.2005 42.3863 20.6975 41.7673 20.9732 41.0251C21.2488 40.283 21.2868 39.4612 21.0811 38.6926C20.9307 38.255 20.6787 37.8675 20.3498 37.5679ZM18.4747 41.0646C18.1891 41.2969 17.8487 41.4357 17.4934 41.4647C17.138 41.4936 16.7825 41.4116 16.4684 41.2282C15.9809 40.901 16.0746 40.1853 16.2621 39.5719C16.4496 38.9584 16.9372 37.9769 17.5934 37.8747C17.8861 37.8363 18.1829 37.8737 18.4598 37.9838C18.7368 38.0939 18.986 38.2737 19.1872 38.5086C19.3789 38.6841 19.5164 38.9197 19.581 39.1833C19.8248 40.0013 19.2247 40.7374 18.5497 41.0646H18.4747Z" fill="#EC1414"/>
<path d="M39.9443 27.0575C39.213 26.3623 39.1942 25.892 37.1504 25.892C36.3854 26.0034 35.6706 26.3696 35.1035 26.9405C34.5363 27.5114 34.1445 28.2592 33.9815 29.0819C33.7938 29.7019 33.7887 30.3705 33.9669 30.9939C34.1451 31.6172 34.4977 32.1642 34.9753 32.5581C35.6175 32.9724 36.3584 33.1684 37.1032 33.1211C37.8481 33.0737 38.5631 32.7851 39.1567 32.2922C39.7949 31.8963 40.292 31.2773 40.5676 30.5352C40.8433 29.793 40.8813 28.9712 40.6755 28.2026C40.528 27.7576 40.2758 27.3627 39.9443 27.0575ZM38.0692 30.5541C37.7836 30.7865 37.4432 30.9253 37.0879 30.9542C36.7325 30.9832 36.377 30.9012 36.0629 30.7177C35.5754 30.3906 35.6691 29.6749 35.8566 29.0614C36.0441 28.448 36.5316 27.4665 37.1879 27.3642C37.6058 27.3072 38.0292 27.4053 38.3898 27.6427C38.7503 27.8802 39.0271 28.243 39.1755 28.6729C39.3817 29.4908 38.8192 30.1247 38.1442 30.5132L38.0692 30.5541Z" fill="#EC1414"/>
<path d="M27.2876 36.6476C26.5308 36.774 25.8255 37.1428 25.2613 37.7071C24.6971 38.2714 24.2994 39.0058 24.1187 39.8171C23.9324 40.4404 23.9279 41.1115 24.1059 41.7377C24.2839 42.3639 24.6355 42.9146 25.1125 43.3137C25.7605 43.7077 26.498 43.892 27.2387 43.8449C27.9793 43.7978 28.6923 43.5213 29.2939 43.0479C29.9321 42.652 30.4292 42.033 30.7048 41.2908C30.9804 40.5487 31.0184 39.7269 30.8127 38.9583C30.5208 38.2193 30.0236 37.5987 29.3912 37.1842C28.7587 36.7697 28.023 36.582 27.2876 36.6476ZM28.2813 41.2894C27.9957 41.5217 27.6553 41.6605 27.3 41.6895C26.9447 41.7184 26.5891 41.6364 26.275 41.4529C25.8063 41.1258 25.8813 40.4305 26.0688 39.7967C26.2563 39.1628 26.7625 38.2221 27.4001 38.0995C27.6927 38.0611 27.9895 38.0985 28.2665 38.2086C28.5434 38.3187 28.7926 38.4985 28.9939 38.7334C29.1821 38.9122 29.3188 39.1465 29.3876 39.4081C29.5751 40.1647 28.9564 40.7373 28.2813 41.228V41.2894Z" fill="#EC1414"/>
<path d="M29.5563 11.8441C29.3445 13.3945 29.4994 14.9782 30.0063 16.445C30.3452 17.1641 30.9136 17.7233 31.6044 18.0171C32.2952 18.3108 33.0606 18.319 33.7565 18.0399C34.2299 17.9149 34.6668 17.6621 35.0272 17.3048C35.3876 16.9475 35.6599 16.4971 35.8191 15.9951C36.1257 14.8477 36.24 13.6493 36.1566 12.4576V11.7623V9.47215C36.1846 9.0194 36.1219 8.56543 35.973 8.14172C35.8241 7.71801 35.5924 7.3347 35.294 7.01838C34.2944 6.27887 33.0752 5.97935 31.8814 6.18001C31.8011 6.17727 31.721 6.19217 31.646 6.22382C31.5711 6.25548 31.5027 6.30324 31.445 6.36428C31.3872 6.42531 31.3414 6.49838 31.31 6.57913C31.2787 6.65988 31.2626 6.74667 31.2626 6.83435C31.2166 6.70826 31.131 6.60409 31.0211 6.54042C30.9112 6.47675 30.7842 6.45772 30.6626 6.48673C30.54 6.52416 30.4279 6.5942 30.3363 6.69056C30.2446 6.78692 30.1764 6.90659 30.1376 7.03883C30.0258 7.75451 29.9819 8.48083 30.0063 9.20633L29.7438 10.4537C29.6461 10.9107 29.5834 11.3758 29.5563 11.8441ZM31.1126 11.0058C31.1126 11.0058 31.4126 7.20241 31.4126 7.05928C31.4599 7.1796 31.5383 7.28233 31.6382 7.35494C31.738 7.42756 31.8551 7.46692 31.9752 7.46824C33.6627 7.46824 34.3753 7.81586 34.5628 8.53154C34.6237 9.83255 34.5418 11.1368 34.319 12.4167C34.3241 13.2083 34.2423 13.9978 34.0752 14.7682C33.944 15.259 33.7752 15.7497 33.3065 15.8724C33.1235 15.9628 32.9244 16.0075 32.7236 16.0033C32.5227 15.9991 32.3253 15.9461 32.1457 15.8481C31.966 15.7502 31.8087 15.6098 31.6851 15.4371C31.5616 15.2644 31.4749 15.0638 31.4314 14.85C31.1334 13.5962 31.0257 12.2976 31.1126 11.0058Z" fill="#EC1414"/>
<path d="M16.0371 11.2103C16.0371 11.4148 16.1683 11.6193 16.8996 11.7011C17.9496 11.7011 18.3997 12.0691 19.8435 12.1509H22.2061H24.5499C25.8437 12.1509 26.6312 12.0282 27.9438 11.926C28.5625 11.926 29.0501 10.6173 28.225 10.3924C26.8 10.3311 25.8249 10.0652 24.3811 10.0652H20.631C19.4715 10.0611 18.313 10.1362 17.1621 10.2902C16.3746 10.3515 16.0183 10.9036 16.0371 11.2103Z" fill="#EC1414"/>
<path d="M43.1319 12.253C42.4991 11.5023 41.6661 10.9873 40.7505 10.7807C39.8828 10.5304 38.9838 10.4338 38.0879 10.4944C36.7566 10.6989 37.1129 11.7009 37.8067 11.7009C38.4349 11.694 39.0625 11.7488 39.6817 11.8645C40.6171 11.9373 41.4934 12.3896 42.1381 13.1322C42.575 14.088 42.8241 15.1327 42.8694 16.1995C43.0569 17.7944 43.2069 19.8597 43.3006 22.1294C40.5443 22.1294 35.0128 21.884 28.8063 21.7613H22.4499H16.0934C9.38062 21.8227 3.54916 22.0681 1.71159 22.1499C1.69969 19.0648 1.98883 15.987 2.57412 12.9687C2.75858 12.5994 3.02902 12.2897 3.35821 12.0707C3.6874 11.8517 4.0637 11.7312 4.44919 11.7213C5.22796 11.5147 6.03005 11.432 6.83053 11.4759C6.93652 11.4561 7.03395 11.3999 7.10869 11.3155C7.18344 11.2312 7.23161 11.1231 7.24624 11.0069C7.26086 10.8907 7.24117 10.7725 7.19003 10.6693C7.13889 10.5661 7.05894 10.4834 6.96178 10.4331C5.80021 10.1587 4.59823 10.1587 3.43666 10.4331C2.97655 10.5538 2.54798 10.788 2.1839 11.1177C1.81982 11.4474 1.52995 11.8638 1.33658 12.3348C0.605301 14.216 -0.144727 24.6036 0.0240296 33.8053C0.155284 40.4918 0.886562 46.4831 2.23661 48.2825C3.2304 49.5912 5.81799 50.3273 9.08061 50.6136C14.1621 50.9817 20.9123 50.3682 24.3999 50.3682C28.7798 50.5195 33.1641 50.3624 37.5254 49.8979C39.4915 49.7117 41.4038 49.1 43.1506 48.0985C43.6594 47.6281 43.9983 46.9759 44.1069 46.2582C44.7745 42.0591 45.0759 37.8005 45.0069 33.5395C45.0069 24.3787 44.3132 13.7661 43.1319 12.253ZM42.6631 43.8657C42.5586 44.7631 42.3507 45.6425 42.0443 46.4831C39.946 47.4409 37.6997 47.9544 35.4253 47.9963C31.0377 48.3848 26.2 48.2007 24.3999 48.2007C20.9498 48.2007 14.2558 48.8346 9.21187 48.5075C6.62427 48.3439 4.48669 48.0576 3.69917 47.0352C2.42412 45.4198 1.88035 39.9193 1.71159 33.8462C1.58694 30.3511 1.57443 26.8523 1.67409 23.3563C3.54916 23.3563 9.26812 23.6835 16.0934 23.8266H22.4499H28.8063C35.0503 23.7039 40.6005 23.5199 43.3381 23.4381C43.3381 25.4829 43.4319 27.7935 43.3381 30.0428C43.3757 34.6613 43.1503 39.2778 42.6631 43.8657Z" fill="#EC1414"/>
<path d="M8.40553 11.7828C8.26122 13.4202 8.40764 15.0726 8.8368 16.6495C9.17569 17.3686 9.74407 17.9278 10.4348 18.2216C11.1256 18.5154 11.8911 18.5235 12.5869 18.2444C13.0645 18.1242 13.5061 17.8734 13.8702 17.5157C14.2343 17.158 14.509 16.7051 14.6683 16.1996C14.9872 15.0408 15.1017 13.8266 15.0058 12.6212V10.4537V9.63579C15.0313 9.18331 14.9675 8.73012 14.8187 8.30682C14.6699 7.88352 14.4396 7.49996 14.1432 7.18202C13.147 6.43346 11.9269 6.1264 10.7306 6.3232C10.5665 6.3232 10.4091 6.39429 10.2931 6.52084C10.177 6.64738 10.1118 6.81902 10.1118 6.99798C10.0658 6.87189 9.98025 6.76772 9.87035 6.70406C9.76045 6.64039 9.63339 6.62136 9.51182 6.65036C9.38924 6.68779 9.27709 6.75783 9.18545 6.8542C9.09382 6.95056 9.02556 7.07023 8.9868 7.20246C8.84603 7.87405 8.7644 8.55876 8.74304 9.24727L8.53679 10.331V10.8627L8.40553 11.7828ZM9.94309 11.1898C9.94309 11.1898 10.2431 7.40694 10.2431 7.24336C10.2853 7.3691 10.3619 7.4777 10.4625 7.55449C10.5631 7.63128 10.6828 7.67256 10.8056 7.67277C12.4932 7.67277 13.2057 8.02039 13.3932 8.73607C13.4479 10.0379 13.3598 11.3422 13.1307 12.6212C13.1324 13.4127 13.0506 14.2017 12.8869 14.9727C12.7744 15.4431 12.6057 15.9338 12.1369 16.0565C11.954 16.1469 11.7548 16.1916 11.554 16.1874C11.3532 16.1832 11.1558 16.1302 10.9761 16.0322C10.7965 15.9343 10.6391 15.7938 10.5156 15.6212C10.392 15.4485 10.3053 15.2479 10.2619 15.0341C9.96041 13.7809 9.85268 12.4817 9.94309 11.1898Z" fill="#EC1414"/>
</svg>
