<svg width="65" height="61" viewBox="0 0 65 61" fill="none" xmlns="http://www.w3.org/2000/svg">
<rect x="0.217529" y="0.528076" width="64.1407" height="60.472" rx="30" fill="url(#paint0_linear_10435_741)"/>
<path d="M31.2839 15.777L30.7792 15.8194C26.0482 16.2215 21.6155 18.6291 18.8069 22.3278C17.2551 24.359 16.2465 26.7135 15.8667 29.191C15.7335 30.0517 15.7168 30.3061 15.7168 31.4761C15.7168 32.6462 15.7335 32.9006 15.8667 33.7644C16.7713 39.6618 21.224 44.6169 27.2609 46.4528C28.3437 46.7811 29.4832 47.0041 30.7792 47.1407C31.2839 47.1926 33.4661 47.1926 33.9709 47.1407C36.2081 46.9051 38.1021 46.3853 39.9728 45.4854C40.2594 45.3472 40.3143 45.3095 40.276 45.2796C40.2494 45.2608 39.0283 43.7169 37.5624 41.8496L34.8987 38.4572L31.5604 33.8005C30.4507 32.2428 29.3307 30.6916 28.2005 29.147C28.1871 29.1439 28.1738 31.2123 28.1672 33.7393C28.1572 38.1635 28.1538 38.341 28.0955 38.4462C28.0381 38.5684 27.9366 38.6674 27.809 38.7258C27.7041 38.7729 27.6141 38.7839 27.1227 38.7839H26.558L26.408 38.6944C26.3175 38.6373 26.2431 38.5602 26.1915 38.4698L26.1215 38.3316L26.1282 32.1766L26.1382 26.0185L26.2381 25.8992C26.3053 25.8225 26.3872 25.7585 26.4797 25.7107C26.6129 25.6494 26.6663 25.6432 27.2293 25.6432C27.894 25.6432 28.0039 25.6683 28.1771 25.8473C28.2271 25.8944 30.0329 28.4623 32.1951 31.5531L38.7685 40.9387L41.4054 44.7048L41.5387 44.6231C42.7214 43.8976 43.9708 42.8673 44.962 41.7915C47.0611 39.5272 48.4226 36.7401 48.8833 33.7644C49.0166 32.9006 49.0333 32.6462 49.0333 31.4761C49.0333 30.3077 49.0166 30.0517 48.8833 29.1894C47.9788 23.2921 43.526 18.337 37.4891 16.501C36.36 16.1626 35.1974 15.9332 34.0192 15.8163C33.7077 15.7849 31.5538 15.7535 31.2839 15.777ZM38.1038 25.2757C38.2604 25.3495 38.387 25.4908 38.432 25.6369C38.4586 25.717 38.4653 27.4242 38.4586 31.2704L38.4486 36.7909L37.4158 35.2988L36.3813 33.8068V29.7941C36.3813 27.1996 36.3947 25.7421 36.4146 25.6714C36.438 25.59 36.4785 25.5138 36.5337 25.4474C36.5889 25.381 36.6578 25.3258 36.7361 25.2851C36.8694 25.2207 36.9194 25.2144 37.4291 25.2144C37.9122 25.2144 37.9955 25.2207 38.1038 25.2757Z" fill="white"/>
<defs>
<linearGradient id="paint0_linear_10435_741" x1="36.7208" y1="62.8035" x2="9.55217" y2="-0.677209" gradientUnits="userSpaceOnUse">
<stop offset="0.0729167" stop-color="#1B1F23"/>
<stop offset="0.973958" stop-color="#363C42"/>
</linearGradient>
</defs>
</svg>
